<svg id="Layer_1" data-name="Layer 1" xmlns="http://www.w3.org/2000/svg" viewBox="0 0 350 350"><defs><style>.cls-1{fill:#fff;}</style></defs><path class="cls-1" d="M254.06,39H95.43A56.42,56.42,0,0,0,39,95.44V254.07a56.42,56.42,0,0,0,56.42,56.42H254.06a56.42,56.42,0,0,0,56.43-56.42V95.44A56.42,56.42,0,0,0,254.06,39ZM174.75,257.43a82.68,82.68,0,1,1,82.67-82.68A82.68,82.68,0,0,1,174.75,257.43ZM258.1,110.75a15.28,15.28,0,1,1,15.28-15.28A15.28,15.28,0,0,1,258.1,110.75Z"/><circle class="cls-1" cx="174.5" cy="174.75" r="52.25"/></svg>