<svg xmlns="http://www.w3.org/2000/svg" viewBox="0 0 90 90"><defs><style>.cls-1{fill:#fff;}</style></defs><g id="Layer_2" data-name="Layer 2"><g id="Layer_1-2" data-name="Layer 1"><path class="cls-1" d="M0,0V90H90V0ZM44.39,15.1A25,25,0,0,1,61.28,22l5.85-5.75a2.5,2.5,0,0,1,4.25,1.78v15a2.49,2.49,0,0,1-2.5,2.5h-15a2.5,2.5,0,0,1-1.81-4.22c1.74-1.82,3.5-3.61,5.26-5.39A19.44,19.44,0,0,0,24.56,40c0,3.7-5.57,3.69-5.56,0a25,25,0,0,1,24-24.9c.47,0,1,0,1.42,0Zm24,32.2a2.78,2.78,0,0,1,2.85,2.78,25,25,0,0,1-24,24.9c-.47,0-.94,0-1.42,0a25.07,25.07,0,0,1-16.89-6.93l-5.85,5.75A2.5,2.5,0,0,1,18.81,72V57a2.5,2.5,0,0,1,2.5-2.5h15a2.5,2.5,0,0,1,1.81,4.22c-1.74,1.82-3.5,3.61-5.26,5.39A19.44,19.44,0,0,0,65.63,50.07,2.78,2.78,0,0,1,68.34,47.3Z"/></g></g></svg>