<?xml version="1.0" encoding="UTF-8"?>
<svg viewBox="0 0 350 350" xmlns="http://www.w3.org/2000/svg">
<path fill="#fff" d="M115.57,304.29c120.11,0,185.59-99.68,185.59-185.59v-8.35a131.69,131.69,0,0,0,32.53-33.78A138.65,138.65,0,0,1,296.16,87a65.88,65.88,0,0,0,28.77-36.29,130.5,130.5,0,0,1-41.28,15.85A64.6,64.6,0,0,0,236.1,45.71a65.33,65.33,0,0,0-65.48,65.48,61.43,61.43,0,0,0,1.67,15A186.75,186.75,0,0,1,37.58,57.8a66.62,66.62,0,0,0-8.76,32.54A65.3,65.3,0,0,0,58,144.55c-10.84-.41-25,.29-33.75-4.71,3.18,18.59,26.66,55.18,56.69,61-5.42,1.67-29.29,10.65-45.19,8C47,234,84.29,246.74,112.65,247.57a131.13,131.13,0,0,1-80.91,27.94c-5.42,0-10.43-.41-15.43-.83a179.33,179.33,0,0,0,99.26,29.61"/>
</svg>
